<svg width="25" height="25" viewBox="0 0 25 25" fill="none" xmlns="http://www.w3.org/2000/svg">
<g id="award_star">
<mask id="mask0_103_1265" style="mask-type:alpha" maskUnits="userSpaceOnUse" x="0" y="0" width="25" height="25">
<rect id="Bounding box" x="0.5" y="0.171875" width="24" height="24" fill="#D9D9D9"/>
</mask>
<g mask="url(#mask0_103_1265)">
<path id="award_star_2" d="M12.5 14.5844L14.2691 15.6507C14.472 15.775 14.6697 15.7668 14.8623 15.626C15.0548 15.4852 15.1221 15.3009 15.0642 15.073L14.6 13.0719L16.1745 11.7045C16.3567 11.5429 16.4096 11.3524 16.3329 11.1328C16.2563 10.9132 16.0999 10.7931 15.8636 10.7725L13.8 10.5969L12.9908 8.68387C12.8955 8.46032 12.7319 8.34855 12.5 8.34855C12.2682 8.34855 12.1046 8.46032 12.0093 8.68387L11.2 10.5969L9.13647 10.7725C8.90024 10.7931 8.7438 10.9132 8.66717 11.1328C8.59054 11.3524 8.64334 11.5429 8.82559 11.7045L10.4 13.0719L9.93592 15.073C9.87795 15.3009 9.94525 15.4852 10.1378 15.626C10.3304 15.7668 10.5281 15.775 10.731 15.6507L12.5 14.5844ZM9.22014 20.1252H6.69679C6.10041 20.1252 5.59298 19.916 5.17449 19.4975C4.75601 19.079 4.54677 18.5716 4.54677 17.9752V15.4518L2.78319 13.6757C2.57196 13.4602 2.41662 13.225 2.31717 12.9703C2.2177 12.7156 2.16797 12.4495 2.16797 12.1719C2.16797 11.8944 2.2177 11.6283 2.31717 11.3735C2.41662 11.1188 2.57196 10.8837 2.78319 10.6681L4.54677 8.89202V6.36867C4.54677 5.77229 4.75601 5.26485 5.17449 4.84637C5.59298 4.42789 6.10041 4.21864 6.69679 4.21864H9.22014L10.9962 2.45507C11.2158 2.24384 11.452 2.08849 11.7047 1.98904C11.9574 1.88958 12.2225 1.83984 12.5 1.83984C12.7776 1.83984 13.0427 1.88958 13.2954 1.98904C13.5481 2.08849 13.7843 2.24384 14.0038 2.45507L15.7799 4.21864H18.3033C18.8997 4.21864 19.4071 4.42789 19.8256 4.84637C20.2441 5.26485 20.4533 5.77229 20.4533 6.36867V8.89202L22.2169 10.6681C22.4281 10.8877 22.5835 11.1238 22.6829 11.3765C22.7824 11.6293 22.8321 11.8944 22.8321 12.1719C22.8321 12.4495 22.7824 12.7146 22.6829 12.9673C22.5835 13.22 22.4281 13.4562 22.2169 13.6757L20.4533 15.4518V17.9752C20.4533 18.5716 20.2441 19.079 19.8256 19.4975C19.4071 19.916 18.8997 20.1252 18.3033 20.1252H15.7799L14.0038 21.8888C13.7883 22.1 13.5531 22.2553 13.2984 22.3548C13.0437 22.4543 12.7776 22.504 12.5 22.504C12.2225 22.504 11.9564 22.4543 11.7017 22.3548C11.447 22.2553 11.2118 22.1 10.9962 21.8888L9.22014 20.1252Z" fill="#9B9C9E"/>
</g>
</g>
</svg>
