<svg width="25" height="24" viewBox="0 0 25 24" fill="none" xmlns="http://www.w3.org/2000/svg">
<g id="award_star">
<mask id="mask0_307_981" style="mask-type:alpha" maskUnits="userSpaceOnUse" x="0" y="0" width="25" height="24">
<rect id="Bounding box" x="0.5" width="24" height="24" fill="#D9D9D9"/>
</mask>
<g mask="url(#mask0_307_981)">
<path id="award_star_2" d="M12.5 14.4125L14.2691 15.4788C14.472 15.6031 14.6697 15.5949 14.8623 15.4541C15.0548 15.3134 15.1221 15.129 15.0642 14.9011L14.6 12.9L16.1745 11.5326C16.3567 11.3711 16.4096 11.1805 16.3329 10.9609C16.2563 10.7414 16.0999 10.6212 15.8636 10.6006L13.8 10.425L12.9908 8.512C12.8955 8.28845 12.7319 8.17667 12.5 8.17667C12.2682 8.17667 12.1046 8.28845 12.0093 8.512L11.2 10.425L9.13647 10.6006C8.90024 10.6212 8.7438 10.7414 8.66717 10.9609C8.59054 11.1805 8.64334 11.3711 8.82559 11.5326L10.4 12.9L9.93592 14.9011C9.87795 15.129 9.94525 15.3134 10.1378 15.4541C10.3304 15.5949 10.5281 15.6031 10.731 15.4788L12.5 14.4125ZM9.22014 19.9533H6.69679C6.10041 19.9533 5.59298 19.7441 5.17449 19.3256C4.75601 18.9071 4.54677 18.3997 4.54677 17.8033V15.2799L2.78319 13.5038C2.57196 13.2883 2.41662 13.0531 2.31717 12.7984C2.2177 12.5437 2.16797 12.2776 2.16797 12C2.16797 11.7225 2.2177 11.4564 2.31717 11.2017C2.41662 10.947 2.57196 10.7118 2.78319 10.4962L4.54677 8.72015V6.19679C4.54677 5.60041 4.75601 5.09298 5.17449 4.6745C5.59298 4.25601 6.10041 4.04677 6.69679 4.04677H9.22014L10.9962 2.28319C11.2158 2.07196 11.452 1.91662 11.7047 1.81717C11.9574 1.7177 12.2225 1.66797 12.5 1.66797C12.7776 1.66797 13.0427 1.7177 13.2954 1.81717C13.5481 1.91662 13.7843 2.07196 14.0038 2.28319L15.7799 4.04677H18.3033C18.8997 4.04677 19.4071 4.25601 19.8256 4.6745C20.2441 5.09298 20.4533 5.60041 20.4533 6.19679V8.72015L22.2169 10.4962C22.4281 10.7158 22.5835 10.952 22.6829 11.2047C22.7824 11.4574 22.8321 11.7225 22.8321 12C22.8321 12.2776 22.7824 12.5427 22.6829 12.7954C22.5835 13.0481 22.4281 13.2843 22.2169 13.5038L20.4533 15.2799V17.8033C20.4533 18.3997 20.2441 18.9071 19.8256 19.3256C19.4071 19.7441 18.8997 19.9533 18.3033 19.9533H15.7799L14.0038 21.7169C13.7883 21.9281 13.5531 22.0835 13.2984 22.1829C13.0437 22.2824 12.7776 22.3321 12.5 22.3321C12.2225 22.3321 11.9564 22.2824 11.7017 22.1829C11.447 22.0835 11.2118 21.9281 10.9962 21.7169L9.22014 19.9533Z" fill="#9B9C9E"/>
</g>
</g>
</svg>
